<svg xmlns="http://www.w3.org/2000/svg" width="40" height="40" viewBox="0 0 40 40"><defs><linearGradient id="a" x1="-1" x2="608.5" y1="1" y2="610.5" gradientTransform="translate(452 450)" gradientUnits="userSpaceOnUse"><stop offset="0" stop-color="#5ccede"/><stop offset=".2" stop-color="#58cbe0"/><stop offset=".4" stop-color="#4cb3dc"/><stop offset=".6" stop-color="#48a3da"/><stop offset=".8" stop-color="#4c95d9"/><stop offset="1" stop-color="#397bcb"/></linearGradient></defs><path fill="#cfcfcd" d="M34.42 8.8h.06q-.07.2-.17.37l-.03.06.04.07-.04.1.12-.05q.36-.1.74-.12h.1q.67-.05 1.36-.04h1v.17l-.36.04h.98l.07-.56h.1l.03.2.02.11q.02.15.01.31l.3.03q0 .07.03.14l-.13.04-.07.03c-.06.02-.06.02-.13.02v.46l.33.07q.01.93-.04 1.86l-.02.46-.03.77-.03.79-.05 1.14v.1l-.11 2.35q-.06.9-.06 1.8v.12q0 .9.07 1.8.19 2.67.19 5.35v.3c0 1.33 0 1.33-.08 1.94l-.07-.03v-2q0-.23-.06-.46l-.06-.35v-.3l-.02-.16-.02-.4-.03-.67-.01-.23-.01-.14v-.12l-.05-.24v1.8a29 29 0 0 0 .09 2.96v.1l.01.32.01.23.02.53h.26a.4.4 0 0 1-.16.2h-.1v.2q.1 0 .2.03v.13l-.2.03v.73h-.1l-.06-.7h-.4l-.06.27h-.1q-.06-.13-.03-.26l-.13.01q-.4.03-.8.02h-1.97l.04.3-.13.03-.07-.33h-.06l-.1.3h-.07l-.1-.33-.1-.01-.4-.05-.16-.01-.24-.03h-.07a2 2 0 0 1-.4-.1l.03-.13h1.11v-.3h-.24l-.22-.03v-.07h.1V28c.01-1.88.01-1.88-.03-2.8q-.04-1.21-.04-2.41v-.3q0-.96.03-1.92l.01-1.1v-.63l-.06.1-.42.69-.1.16-.05.08-.3.47-.06.1-.31.5a92 92 0 0 1-1.66 2.6c-1.64 2.69-1.64 2.69-2.13 2.95-.34-.07-.63-.55-.83-.82l-.18-.22q-.52-.7-.98-1.44-.42-.68-.87-1.35a44 44 0 0 1-1.77-2.93l-.13-.2-.06-.11-.06-.1a1 1 0 0 1-.07-.32q-.01-.1-.07-.2v-.09c.17.03.25.07.35.21l.08.11.1.14q-.05-.13-.14-.25-.16-.23-.13-.5c.07-.07.07-.07.13-.1l.53.85-.14-.3-.04-.1-.21-.44a1 1 0 0 1-.1-.3 3 3 0 0 0-.14-.48l-.03-.07a1 1 0 0 0-.25-.39q-.09-.11-.1-.27l-.03-.1-.01-.08.1-.06c.47.58.85 1.25 1.22 1.91l.38.65.44.74.55.93.04.06q.2.34.42.66l.2-.32.07-.1.35-.55q.21-.36.46-.7l.1-.17.06-.08c.05-.1.04-.14 0-.24-.03-.08-.03-.08-.08-.15l-.05-.1-.06-.08-.11-.18-.06-.09a45 45 0 0 1-1.16-1.95l-.35-.6q-.54-.92-1.04-1.86l-.54-.97-.3-.52-.05-.1-.4-.73-.32-.57-.07-.12-.1-.17-.05-.1c-.12-.22-.12-.22-.11-.38l.06-.03.05.07.03.06.08.13.25.41q.44.74.84 1.5l-.05-.1-.06-.14-.03-.07q-.1-.18-.12-.39.22.21.35.48l.05.1.25.45q.24.45.51.87.29.45.55.9-.44-.89-.95-1.7a17 17 0 0 1-.7-1.2l-.66-1.14-.12-.2-.07-.11c0-.02 0-.02-.06-.1a1 1 0 0 1-.04-.45h.13l.2.24.46.71q-.22-.5-.5-.99a1 1 0 0 1-.14-.39q-.03-.14-.1-.27l-.11-.28h-.07l-.03-.23c.15.05.2.16.28.29l.05.06.53.9.45.7.56.9.23.38.7 1.19.38.61.6 1.02.3.51q.36.6.68 1.24l.04.07.03.07.04.06.07.14.67 1.21.37-.6.57-.97.71-1.21.34-.58.04-.07.5-.85.3-.5a38 38 0 0 1 2.1-3.3l-.13-.06c0-.06 0-.06.03-.13l.13-.05q.28-.14.46-.4l.06-.17.13-.17q.11-.12.19-.25zm.3.92-.04.13c.06.06.13.04.2.04h.17q.61-.01 1.23-.07l.25-.02.61-.04v-.04zm-.73.04v.1l.22-.02c.07-.02.07-.02.14-.08zm4.14.03v.36l.13.03v-.4zm-.54.02h-.13l-.15.02-.14.02-.3.02-.39.04-.3.02-.14.02-.2.01-.1.02q-.14 0-.27.04v.03a7 7 0 0 0 .8.06l1.07.01h.39c.16 0 .16 0 .2-.04V9.8q-.18 0-.34.02m-3.83.36q-.1.12-.17.26l-.06.1-.06.12-.07.12-.9 1.65-.1.17q-.06.09-.1.19-.05.04-.06.1l-.06.09-.03.07.03.07q.39-.6.76-1.22l.3-.48.35-.6q.18-.33.4-.63c-.15-.08-.15-.08-.23 0m.75.05c-.34.4-.28.83-.26 1.33l.04 1.14q.03.67.03 1.34l.01 1.49v.11l.02.66c.1-.14.13-.24.15-.42v-.09l.02-.09v-.1l.03-.22v.5c.1-.1.15-.16.21-.27l.05-.07.05-.09.04-.08.17-.28.11-.2.64-1.11.37-.65.5-.9.46-.8.09-.15.1-.17q.05-.19.05-.39v-.07l.01-.2h.07l.03.27q.15-.14.23-.33v-.07h-.07l-.65-.02-.33-.01-1.4-.05zm3.32.1c-.23.43-.37.8-.36 1.3q.12-.18.2-.42l.03-.09c.2-.52.2-.52.2-.8zm.3.03-.02 1.22v.1q-.03 2.34-.02 4.68v2.5h.07l.02-.5.01-.17q.04-.64.05-1.3v-.08l.03-1.86v-1.17l.01-.85v-.74l.01-.43v-.56a8 8 0 0 0-.03-.84zm.32.03q-.04.72-.03 1.44h.03l.07-.51.03-.18.03-.25v-.08l.07-.49q-.1 0-.2.07m-4.3.5q-.13.31-.12.67l-.01.12-.02.39-.01.25-.03.76-.01.13-.03 1.95V16q-.01.43.04.85a.7.7 0 0 0 .28-.56v-.28l.01-1.02v-1.02q0-1.56-.03-3.1zm-10.2.16.06.16.03-.06zm13.85.06c-.25.52-.34.96-.33 1.54v.79l.02.57q0 1.47.04 2.95c.08-.12.08-.2.1-.34v-.07l.01-.24.01-.17.03-.44q0-.23.03-.45l.04-.74.02-.35.04-.74v-.48q.03-.91.02-1.83zm-13.76.1.03.07zm.03.07.04.06zm13.23.03a48 48 0 0 0-1.54 2.76l-.16.28-.04.07-.24.44-.05.11-.12.22-.28.5c-.23.35-.31.62-.29 1.04.42-.4.7-.99.98-1.49l.16-.27.59-1.03.14-.25a22 22 0 0 0 .64-1.2l.06-.12q.12-.21.15-.44v-.1l.01-.1.01-.1c.02-.24.02-.24-.02-.32m-3.34.03-.05.1-.5.9-.38.65a39 39 0 0 1-.98 1.67l-.06.1-.22.39q-.67 1.15-1.36 2.28l-.34.55-.1.17-.08.12-.37.6-.07.1-.12.17c-.13.19-.13.19-.13.33q0 .04.03.08l-.1.02c-.12.06-.15.1-.23.22-.2.28-.2.28-.33.38-.1.02-.1.02-.2-.03l-.2-.26c-.1.04-.12.06-.18.16l-.06.08-.05.08q-.37.55-.8 1.06-.22.24-.41.49.08.23.23.44l.05.08.58.87.52.78.17.26.1.16.06.07.18.3.04.06h.07l.03-.06q.39-.72.8-1.41l.24-.43q.55-.95 1.14-1.88l.33-.54c.72-1.15.72-1.15.99-1.55l.18-.26q.57-.86 1.18-1.69l.05-.07.04-.06.04-.06.06-.07a1 1 0 0 0 .06-.3V16l.01-.3.01-.46v-.08l.01-.16v-.23l.05-1.28v-.1l.08-1.37.02-.68zm-.33.04.03.06zm-.04.06-.06.17.1-.1zm-.1.17-.03.05-.61.96a25 25 0 0 0-1 1.6l-.51.87-.44.73q-.34.53-.65 1.08l-.1.18-.75 1.28-.05.1-.15.27-.05.1-.05.08-.04.08c-.03.07-.03.07 0 .17.15-.13.23-.29.33-.45l.06-.09.41-.68.4-.67a116 116 0 0 0 1.87-3.12l.35-.61.67-1.2.15-.26.1-.16.04-.07.09-.18zm3.75.78-.03.07-.61 1.2q-.14.23-.24.49c-.27.58-.63 1.14-.97 1.69l-.17.29-.05.1-.1.16-.26.4.03.07.06-.08.07-.09h.1a1 1 0 0 1-.12.3l-.05.08-.12.16a.7.7 0 0 0-.14.48v.39l.02.37v.44l.02.29q.01.75.07 1.5l.07 1.1.04.7.01.3v.16q.04.84.04 1.69v1.54q.02 1.77-.07 3.54c.6 0 .6 0 .89-.02h.08l.25-.03.18-.01.93-.08h.08q.15-.02.28-.06v-.09l-.2-1.94q-.15-1.69-.13-3.39v-.53a49 49 0 0 1 .12-3.46q.06-.69.06-1.37v-.08l-.03-1.02-.03-1.03v-.11l-.05-4.12zm-12.9.56.03.07zm.03.07.03.06zm.03.06.03.07zm.99.04q.08.2.2.4l.03.06c.09.16.09.16.16.2-.05-.18-.12-.3-.22-.45q0-.03-.04-.06l-.1-.15zm6.73 0-.09.12-.04.08-.04.06.04.06.08-.12.05-.08.03-.06zm-7.69.03.04.06zm7.5.3.02.06zm-.04.06v.1zm-.07.1.03.06zm-6.04.16.07.2.06.03-.06-.2q-.04 0-.07-.03m.13.23.07.17q0-.04.03-.07zm.1.17.07.16.03-.07zm.1.16.06.16.04-.06zm.1.16.06.17.04-.07zm.1.17.03.06zm.03.06.06.17.04-.07zm.1.17.06.2q.04 0 .07.03l-.07-.2zm-.95.03.03.07zm.03.07.03.06zm.23 0 .06.16.04-.06zm-.2.06.03.07zm.53 0 .03.07zm-.5.07.21.44.04.08a29 29 0 0 0 .75 1.33q.3.54.62 1.07l.16.28.16.25.07.12.1.17.07.1.19.3H28a1 1 0 0 0-.14-.4l-.03-.05-.08-.12-.19-.3-.04-.07-.31-.55q-.3-.56-.65-1.1l-.4-.67-.04-.06-.26-.42-.06-.1q-.08-.15-.2-.3zm.53 0q.22.56.53 1.1l.18.36c.27.57.62 1.11.96 1.65l.14.21q.13.24.32.42l.04-.06-.1-.22-.04-.07q-.5-.96-1.09-1.88l-.46-.8-.07-.1-.12-.21-.06-.1-.05-.1zm.46 0q.08.24.23.46 0-.04.03-.07l-.11-.2-.06-.1-.06-.1zm4.04.16.03.07zm-.04.07-.06.16.1-.1zm-.1.16.04.07zm-3.64.07.07.16.03-.06zm3.61 0-.5.88-.58.99-.62 1.08.06.07.53-.9.08-.15.75-1.32.1-.18.12-.21.06-.11.04-.09zm-3.51.16.07.17q0-.04.03-.07zm.1.17.03.06zm.03.06.03.1v-.1zm.07.1.03.07zm10.67.26-.15 1.57a18 18 0 0 0 .03 2.77l.07 1.34v.1l.04.56v.17l.02.24v.07q.01.15.05.3h.07l-.01-.98v-.08l-.04-2.19v-.1l-.03-1.1q-.03-1.32-.02-2.67zm-3.38.17c-.07.06-.05.19-.06.28v.07l-.01.17c.1-.1.12-.15.13-.3l-.03-.22zm.36.36v.1zm-.6.03-.13.2-.04.07-.09.16.04.1c.14-.17.22-.3.26-.53zm-.45.13a70 70 0 0 0-2.32 3.47l-.16.26A36 36 0 0 0 29.92 23l-.04.08-.1.15-.1.17.04.07.4-.58.12-.2a40 40 0 0 0 1.11-1.66l.04-.05c1.07-1.57 1.07-1.57 1.46-2.2l.21-.32.47-.73.07-.11a1 1 0 0 0 .2-.55zm.69.3-.04.13.07-.13zm-.3.36-.03.13.06-.03q0-.06-.03-.1m.3.13c-.04.03-.04.03-.04.1v.56h.04l.03-.66zm-10.15.3c.03.21.14.4.23.59l.04.07q.3.63.66 1.23l.17.3q.33.61.7 1.19l.1.14.2.32.13-.13-.4-.7q-.58-.89-1.1-1.8l-.07-.1-.63-1.11zm9.85.06.03.1zm-5.78.82.07.2h.06c0-.06 0-.06-.03-.13zm5.48.26q-.04.39-.03.77v2.32c0 2.23 0 2.23.02 3.3q.02.7.02 1.43v.37c0 1.27 0 1.27-.05 1.7a2 2 0 0 0-.02.46v.16h.26v-2.54q.02-2.94-.08-5.89l-.01-.38-.02-.47v-.09l-.05-1.14zm-5.7.07c-.03.1-.05.15-.01.24l.03.06.1-.04c.03-.07.03-.07.04-.16l-.1-.1zm-.2.26-.1.15-.07.1-.07.11-.14.23-.04.06-.39.6-.41.62-.06.1c-.04.07-.04.07-.04.17.12-.04.15-.09.23-.19l.08-.1.04-.05.14-.17q.34-.42.64-.87l.24-.33.05-.06.1-.14-.14-.23zm.95-.3-.13.23-.04.07c-.1.16-.1.16-.1.23h-.06v-.08c-.03-.08-.03-.08-.1-.12l-.07-.03c-.06.08-.1.11-.1.21q.07.18.2.32h.07l.03-.07q.15-.28.33-.55c.03-.07.03-.07.03-.2zm-4.53.5.03.07zm.06.1q.09.27.24.51l.11.19.06.1.22.4a26 26 0 0 0 1.44 2.35q.32.5.66.98l.04.06q.25.36.53.7.45.55.84 1.14l.11-.24.04-.06c.08-.18.08-.18.08-.29-.08-.06-.08-.06-.2-.1q-.14.07-.26.17l.02-.07c.06-.24.06-.24.01-.37l-.17-.23-.13-.16-.07-.08-.21-.3-.07-.1-.07-.1-.17-.24-.07-.11-.06-.08-.03.07.1.2.03.05.1.2.12.24.03.06q.1.2.18.43a7 7 0 0 1-.46-.72q-.35-.6-.73-1.2l-.3-.47-.06-.1-.33-.53q-.45-.75-.94-1.48l-.07-.1-.19-.27-.05-.08q-.15-.2-.32-.37m9.98.75q-.04.14-.04.28v.1l-.01.09v.1q-.02.52-.02 1.06v.63q0 .33.04.67h.03q.04-.56.04-1.1v-1.83zm3.09.14q-.05.1-.04.22v.1l-.01.1v.13l-.02.38v.07a41 41 0 0 0 .03 4.68l.03.34.05.75.02.2.03.38.01.11v.11l.02.1c.01.07.01.07.08.17.07-1.01.15-2.04.13-3.06v-.2q-.04-1.26-.14-2.52l-.06-.89-.1-1.17zm-2.92.98.03.1zm-8.15.23q.37.6.77 1.18l.29.4.86 1.2.06.08.05.07.08.12h.1a2 2 0 0 0-.23-.4l-.05-.07-.15-.23-.1-.14-.4-.58-.04-.07-.1-.13-.61-.95-.07-.1-.13-.23-.06-.1-.06-.09-.04-.06c-.07 0-.12.06-.17.1m8.15-.1.03.1zm.03.17v.08l-.01 2.18v1.05c-.02 3.02-.02 3.02-.06 4.37h.17l.08-2.08v-.08q.04-1.6-.03-3.2V24q-.04-.99-.12-1.96zm-4.33 1.08.03.06zm-.07.1.03.06zm-.03.06v.1zm-.07.1v.1zm-.42.07v.1zm.36.03v.1zm-.43.07.03.06zm.36.03v.1zm-.07.1-.38.53-.5.68.03.07q.37-.45.7-.92.01-.05.06-.1l.13-.2zm-.52 1.05-.06.08-.07.1-.05.05-.23.29c-.08.1-.08.1-.1.2l.02.07h.06l.1-.16.36-.57zm-.4.23v.1zm.33.26.04.07zm-.06.1.03.06zm-.07.1.04.06zm8.87.56a15 15 0 0 0-.04 1.15v1.66q0 .14.04.27h.03c.16-.73.08-1.55.05-2.3v-.12q-.01-.33-.05-.66zm-3.84.55-.04.56v2.63h.13v-.97l-.01-.07-.05-2.15zm3.64 2.3c-.1.8-.1.8 0 1.05h.1l-.03-1.02q-.04 0-.07-.03m.36.13c-.07.62-.07.62-.06.92h.13q.01-.45-.04-.92zm-.85.69q-.06 0-.1.02l-.1.02q-.06 0-.1.02l-.26.04q.13.08.28.08h.08l.09.01h.09l.21.01c.04-.03.04-.03.04-.14v-.09q-.11 0-.23.03m-3.19.23v.27h.13v-.23zm.4 0c-.03.11-.04.16 0 .27l.13-.04v-.23zm.3 0-.04.23q.52.01 1.03-.04l.3-.02h.2l.09-.01.08-.01h.07c.07-.02.07-.02.17-.08a22 22 0 0 0-1.9-.07m3.25.24c-.04.06-.04.06-.03.13l.02.06h.17c.03-.03.03-.03.03-.12v-.08c-.11-.04-.11-.04-.19 0m-.3.06.03.13.1-.03v-.17c-.03 0-.03 0-.13.07m-.8.03h-.12l-.1.01-.11.01c-.09.01-.09.01-.19.08h1.15v-.13z"/><path fill="url(#a)" d="M452 450h591c-2.2 10.1-2.2 10.1-3.7 14.3-.2.5-.2.5-1 2.9-.4 1-.8 2-1.1 3-.4 1-.8 2.1-1.2 3.2-1.2 3.5-2.4 7-3.7 10.5-.8 2.4-1.7 4.8-2.6 7.3-1.3 3.6-2.6 7.3-3.9 11-3.7 10.5-7.4 21-11 31.5-1 2.7-1.9 5.4-2.8 8.1a1395 1395 0 0 0-10.6 30.7c-2.5 7.3-5.4 12.7-12.4 16.5-7.5 2.5-14.9 2.3-22.7 2.2h-53.1c-11.1 0-22.2 0-33.3-.1h-60.7c-15.4 0-30.7-.1-46-.1h-90.4c-7.6-.1-15.2-.1-22.8-.1h-29.5c-9.6 0-19 .4-28.5 1.1 5.2 18 10.5 35.9 15.9 53.8.7 2.2 1.4 4.5 2 6.8 7.7 25.5 15.5 51 23.3 76.6a9235 9235 0 0 1 21.1 69.7c1 3.1 1.9 6.2 2.8 9.3l1.1 3.4c2.2 7.6 4.6 15.2 7 22.7.8 2.7.8 2.7.8 4.7h2c.4-1.2.7-2.3 1.1-3.5 2.2-6.4 4.7-12.7 7.1-19 1.6-4 3.2-8 4.7-12.1.4-.8.7-1.6 1-2.5 3.5-8.9 6.9-17.8 10.4-26.6 1-2.8 2.1-5.6 3.2-8.4 3.2-8.5 6.5-17 9.8-25.5 13.4-35 13.4-35 20.2-51.7.5-1.4 1.1-2.7 1.6-4.1.8-1.9 1.5-3.7 2.3-5.6l1.2-3.1c2.6-5.4 5.5-9.5 10.4-12.9 3-1 5-1.1 8.2-1.1 1.1-.1 2.1-.1 3.2-.1h19.7c1.4 0 2.8 0 4.2-.1h20c7.7 0 15.3 0 23-.1h17.8c3.6 0 7.1 0 10.7-.1h15.4c6.2 0 10.1.2 14.8 4.5 6.3 8.8 9.5 20.8 13.2 30.8 1.1 3.2 2.3 6.4 3.5 9.5 1.6 4.4 3.2 8.8 4.9 13.2 3.7 10.1 7.5 20.2 11.3 30.3.4.9.8 1.8 1.1 2.8 4.6 12 9.1 24 13.9 35.9 2.7 6.9 5.4 13.9 8 20.8.7 1.8 1.4 3.7 2.1 5.5 1 2.7 2.1 5.4 3.1 8.1.9 2.5 1.9 5 2.8 7.5.2.3.2.3.9 2.3 2 5.2 2 5.2 4.2 6.3l1.2-3.7c2-5.8 4-11.6 5.9-17.4.4-1.1.8-2.3 1.2-3.5 1.3-3.7 2.6-7.5 3.9-11.3.5-1.3 1-2.6 1.4-3.9 9.7-28.2 19.5-56.3 29.4-84.5 1.3-3.8 2.7-7.6 4-11.4l2.7-7.8c6.4-18.1 12.7-36.2 19-54.4 5.5-15.8 11-31.7 16.6-47.5 6.7-19.1 13.4-38.2 19.9-57.3.9-2.4 1.7-4.9 2.6-7.3 1.6-4.7 3.2-9.4 4.9-14.2.3-1.1.7-2.2 1.1-3.4.8-2.3 1.6-4.5 2.3-6.7 2.2-6.2 4.3-12.4 6.4-18.5.7-1.9 1.3-3.7 1.9-5.5.9-2.5 1.8-5 2.6-7.6.3-.7.5-1.4.8-2.1 3-8.7 6.1-16.2 14.4-20.8 4.5-1.4 8.2-1.6 12.8-1.2.7.1 1.4.1 2.1.2 3 1.3 3.6 3.6 5 6.6.5 1 1 2 1.5 3.1.5 1 .9 2.1 1.4 3.1l1.2 2.7c1.5 4.2.2 8.1-1.1 12.2-1.1 2.1-1.1 2.1-3.1 3.1-.3 2-.3 2-.5 4.4-.3 4.4-.3 4.4-2.5 6.6-.6 2.2-1.1 4.3-1.5 6.5-1.3 6.3-1.3 6.3-3.5 8.5-.8 2-1.6 4-2.3 6.1l-.7 1.9c-.7 2.1-1.5 4.2-2.2 6.4-.5 1.5-1.1 3-1.6 4.5-4.9 14-9.6 28.1-14.4 42.1-4.7 13.9-9.5 27.8-14.4 41.6-4.6 13.2-9.2 26.5-13.7 39.8-4.6 13.5-9.4 27-14.2 40.4-4.6 12.6-8.9 25.3-13.1 38-4.4 13.5-9.1 26.8-13.9 40.2a1987 1987 0 0 0-14.9 43.1c-4.2 12.7-8.5 25.3-13 37.9-.3.7-.5 1.3-.7 1.9-.3.7-.5 1.3-.7 2-1.9 5.3-3.8 10.6-5.6 16-.9 2.5-1.7 5-2.6 7.6-.6 1.6-1.1 3.2-1.7 4.9-7.2 21-7.2 21-16.3 27.6-5.3 1.8-11.1 2.1-16.3.2-10.1-5.8-13.1-17.9-16.9-28.1-1.1-3.1-2.3-6.2-3.5-9.3-.1-.4-.1-.4-.8-2.3-2.4-6.4-5-12.7-7.6-19.1-4-9.9-7.7-20-11.3-30.1-4.1-11.3-8.3-22.5-12.7-33.7-8.1-20.9-15.9-42-23.7-63-3-8.2-6.1-16.4-9.2-24.6-15.3-.2-15.3-.2-93-1-.5 1.6-.5 1.6-3 10-.6 1.7-1.2 3.4-1.8 5-.3.9-.7 1.8-1 2.7-.4.9-.7 1.8-1.1 2.8-.2.5-.2.5-1.1 3.1-1.4 3.5-2.7 6.9-4 10.4-.5 1.3-1 2.5-1.4 3.8-6.1 15.9-12.2 31.8-18.5 47.7-6.3 16.1-12.4 32.2-18.4 48.3-4.4 11.8-8.8 23.5-13.3 35.2-.7 1.8-1.4 3.6-2 5.4-2.1 5.6-4.3 11.1-6.4 16.6-.5 1.2-.9 2.4-1.4 3.7-.5 1-.9 2.1-1.3 3.2-.4.9-.7 1.8-1.1 2.7-2.7 5.3-6.4 9.5-12.2 11.4-6.3.9-12.6.8-18.2-2.6-5.9-4.6-8.1-12.4-10.2-19.3-.3-1.1-.6-2.2-1-3.3-.8-2.5-1.5-5-2.3-7.5-1.2-3.8-2.3-7.7-3.5-11.5-11.7-37.8-23.1-75.7-34.6-113.5-1.6-5.4-3.3-10.8-4.9-16.2l-27.9-92.2c-.6-2.2-1.3-4.4-2-6.7L569 609l-.6-2-3.9-13.5c-.4-1.2-.7-2.3-1.1-3.5-4.5-15.9-4.5-15.9-1.4-23.2 2.8-5 6.8-7.8 12-9.8 7.8-1.4 15.7-1.2 23.6-1.2h32.2c8.1-.1 16.3-.1 24.5-.1 11.9 0 23.7 0 35.6-.1 19.2 0 38.4-.1 57.6-.1 18.7 0 37.4-.1 56-.1h3.5c5.8 0 11.6-.1 17.3-.1L968 555c1.5-4 3-7.9 4.5-11.9.5-1.3 1-2.7 1.5-4 3.8-9.9 7.5-19.8 10.9-29.8.9-2.5 1.8-5 2.7-7.6.4-1 .7-2.1 1.1-3.2 1.7-4.5 3.5-9 5.3-13.5H487c1 92.1 1 92.1 9.3 119.7l1.2 4.2 3.3 11.1c.9 3.1 1.9 6.3 2.8 9.4 3.1 10.5 6.3 21.1 9.4 31.6.2.8.5 1.5.7 2.3 6.7 22.7 13.5 45.4 20.3 68.1 2.1 6.9 4.1 13.8 6.2 20.7.3.9.5 1.8.8 2.8 4.5 15 8.9 30 13.3 45 6.1 20.9 12.3 41.7 18.6 62.5 5.6 18.5 11.1 37 16.6 55.6 6.2 21.1 12.6 42.2 18.9 63.2 4.5 14.7 8.8 29.3 13.1 44 3.3 11.4 6.7 22.9 10.2 34.3.3 1.1.6 2.2 1 3.3.1.4.1.4.9 2.9.2.8.5 1.6.7 2.5.7 1.8.7 1.8 1.7 2.8 2.1.1 4.2.1 6.3.1h24.8c4.1 0 8.1 0 12.1-.1H703c.1-.8.3-1.5.4-2.3.7-3.4 1.9-6.6 3-9.9.3-.7.5-1.4.8-2.1.8-2.3 1.6-4.7 2.4-7 .3-.8.6-1.6.9-2.5 6.1-17.2 12.5-34.3 18.9-51.4 5.3-13.9 10.4-27.8 15.5-41.8.2-.7.5-1.4.7-2.1.3-.7.5-1.4.8-2.1.5-1.5 1.1-3 1.6-4.5.3-.7.5-1.5.8-2.2 5.3-14.7 10.7-29.3 16.2-43.9 5.1-13.3 10.1-26.8 14.9-40.2 4.6-12.6 9.2-25.2 14-37.7l1.5-3.9c4.7-12.3 4.7-12.3 8.6-17.4l1.6-2.2c4.8-3.6 10.4-4.1 16.2-3.2 8.5 3.8 11.9 12.4 15.1 20.7 2 5.6 3.9 11.3 5.8 17 6 17.7 12.3 35.2 18.9 52.6 5.4 14 10.6 28.1 15.6 42.2 6.1 17.3 12.5 34.6 18.9 51.8 6.7 17.8 13.3 35.6 19.7 53.5 3.5 9.6 7 19.2 10.7 28.6.3.9.6 1.8 1 2.7.3.8.6 1.5.9 2.3.6 2 .6 2 .6 5 11.1-.2 11.1-.2 67-1 1.9-6 3.8-12 5.8-18.2 4.3-13.7 8.7-27.4 13.3-41 5.6-16.9 11-33.9 16.4-50.9 2.6-8.4 5.2-16.7 7.9-25.1.2-.8.5-1.7.8-2.6 4.2-13.1 8.4-26.3 12.7-39.4 4.7-14.4 9.3-28.7 13.7-43.1 6.3-20.3 12.8-40.5 19.3-60.8 1.1-3.2 2.2-6.5 3.2-9.8.2-.7.5-1.3.7-2 2.8-8.7 5.6-17.5 8.3-26.2.2-.5.2-.5 1-3.1 1.5-4.5 2.9-9.1 4.3-13.7 1.5-4.7 3-9.4 4.6-14.1.3-.8.5-1.6.8-2.5.9-2.5 1.8-4.9 2.6-7.4.3-.7.6-1.5.8-2.2 2-5.4 4.8-8.2 9.8-10.9 3.3-1.1 6.6-1.5 10-2 4.5 5.5 7.5 10.8 9.9 17.4.4.8.7 1.6 1 2.4 2 5.6 2.7 10.4 1.1 16.2-.7.8-1.4 1.7-2.1 2.6-2.8 3.5-2.2 6-1.9 10.4h-2c-.3 1-.7 2-1 3-2.2-.5-4-1-6-2l1.5 3c1.8 4.2 1.9 7.5 1.5 12l-2 2c-.8 1.8-.8 1.8-1.5 4.1-.3.9-.6 1.7-.9 2.6s-.6 1.9-.9 2.8c-.1.5-.1.5-.9 3-1.1 3.2-2.1 6.5-3.2 9.7-.7 2.2-1.4 4.5-2.2 6.7-4.4 13.9-8.8 27.7-13 41.7-4.5 14.6-9.1 29.2-13.8 43.7-5.1 15.7-10.1 31.5-15 47.3-5.3 17.2-10.7 34.3-16.1 51.5l-1.2 3.9-11.1 34.8c-1.1 3.4-2.2 6.9-3.3 10.4l-1.5 4.8c-3.1 9.5-6 19-8.9 28.5-.3.9-.6 1.9-.9 2.9-1.5 4.6-2.9 9.2-4.3 13.9-7.6 25-7.6 25-15.3 29.7-4.7 2.5-9.2 2.3-14.4 2.3h-2.9c-3.1.1-6.2.1-9.3.1h-20.1c-5.8 0-11.6.1-17.4.1-4.5 0-9 .1-13.4.1h-6.4c-22.3.2-22.3.2-29.1-5.6-5.6-6.2-8-13.7-10.6-21.5-.9-2.8-1.9-5.5-2.8-8.3-.3-.7-.5-1.5-.8-2.3-4-11.5-8.3-22.9-12.5-34.3-.9-2.5-1.8-5-2.8-7.6-4-10.7-7.9-21.5-11.9-32.2-.3-.7-.5-1.4-.8-2.1-1-2.6-1.9-5.2-2.9-7.8-3.8-10.2-7.6-20.5-11.3-30.8-.3-.7-.5-1.4-.8-2.1-1-2.7-2-5.5-3-8.3C830 903 830 903 823.2 885.3c-.1-.3-.1-.3-.8-2.1-4.1-10.7-4.1-10.7-6.4-15.2-3 5.7-5.4 11.4-7.6 17.5-.4.9-.7 1.8-1 2.7-1.1 3-2.2 5.9-3.3 8.9-.7 2-1.5 4.1-2.3 6.2-5 13.6-9.9 27.3-14.8 41-4.5 12.7-9.3 25.5-14 38.1-5.4 14.2-10.6 28.4-15.7 42.6-3.8 10.3-7.5 20.7-11.3 31-.4 1-.8 2.1-1.1 3.1l-6.3 16.8c-.6 1.7-1.2 3.3-1.8 5-7 19.1-7 19.1-15.8 23.7-4.5 1.8-8.8 1.8-13.6 1.8H689q-6.75.15-13.5 0c-5.7 0-11.4.1-17.2.1h-31.1c-7.6-.1-14.2-2.1-19.5-7.6-3.3-4.3-4.8-9-6.3-14.1-.3-1.1-.6-2.2-1-3.3-.9-3.1-1.8-6.3-2.8-9.4-1.1-3.7-2.2-7.5-3.4-11.2-3.1-10.2-6.2-20.4-9.2-30.6-1-3.4-2.1-6.8-3.1-10.2-8.6-28.8-17.2-57.5-25.7-86.4q-7.05-24.45-14.4-48.9c-6.6-21.8-13.1-43.6-19.5-65.5-1.4-4.5-2.7-9.1-4.1-13.7-.2-.7-.4-1.5-.7-2.2q-6-20.7-12.3-41.4c-6.1-20.6-12.2-41.2-18.2-61.9-4.8-16.8-9.8-33.5-14.8-50.2-1.1-3.7-2.1-7.3-3.2-10.9-2.8-9.4-5.6-18.8-8.5-28.1-.9-3.2-1.9-6.3-2.8-9.4l-1.2-4.1c-5.7-18.2-5.8-35.7-5.7-54.6v-69.2c0-3.6 0-7.2.1-10.8V454c.1-2 .1-2 1.1-4" transform="translate(-13.58 -5.74)scale(.03283)"/></svg>