<svg xmlns="http://www.w3.org/2000/svg" width="16" height="16" viewBox="0 0 16 16"><defs><linearGradient id="a" x1="-1" x2="608.5" y1="1" y2="610.5" gradientTransform="translate(432.54 205.06)scale(.65028)" gradientUnits="userSpaceOnUse"><stop offset="0" stop-color="#5ccede"/><stop offset=".2" stop-color="#58cbe0"/><stop offset=".4" stop-color="#4cb3dc"/><stop offset=".6" stop-color="#48a3da"/><stop offset=".8" stop-color="#4c95d9"/><stop offset="1" stop-color="#397bcb"/></linearGradient></defs><path fill="url(#a)" d="M432.54 205.06h384.31c-1.43 6.56-1.43 6.56-2.4 9.3-.13.32-.13.32-.65 1.88q-.4.97-.72 1.95c-.26.65-.52 1.37-.78 2.08q-1.15 3.41-2.4 6.83-.8 2.32-1.7 4.75-1.27 3.53-2.53 7.15-3.62 10.25-7.16 20.49-.96 2.62-1.82 5.26c-1.69 4.68-3.31 9.43-4.94 14.18q-.31.99-.71 2.08a81 81 0 0 1-1.24 3.7c-1.62 4.75-3.51 8.26-8.06 10.74-4.88 1.62-9.7 1.5-14.76 1.43h-34.53q-10.83.02-21.66-.07h-39.47c-10.01 0-19.96-.06-29.91-.06h-58.79q-7.41-.09-14.82-.07h-19.2c-6.24 0-12.35.26-18.53.72q5.07 17.53 10.34 34.98.7 2.17 1.3 4.42c5 16.58 10.08 33.17 15.15 49.81 4.62 15.1 9.24 30.24 13.72 45.33q.96 3.02 1.82 6.05l.72 2.2c1.43 4.95 2.99 9.9 4.55 14.77.52 1.75.52 1.75.52 3.05h1.3c.26-.78.46-1.5.72-2.27 1.43-4.16 3.05-8.26 4.61-12.36q1.58-3.88 3.06-7.87.38-.76.65-1.62c2.28-5.79 4.49-11.58 6.76-17.3a185 185 0 0 1 2.09-5.46q3.13-8.3 6.37-16.58c8.71-22.76 8.71-22.76 13.13-33.62.33-.91.72-1.76 1.04-2.67.52-1.23.98-2.4 1.5-3.64l.78-2.01c1.69-3.52 3.58-6.18 6.76-8.4a15 15 0 0 1 5.33-.7c.72-.07 1.37-.07 2.09-.07h12.81q1.36.02 2.73-.07h13c5.01 0 9.95 0 14.96-.06h11.57c2.34 0 4.62 0 6.96-.07h10.02c4.03 0 6.56.13 9.62 2.93 4.1 5.72 6.18 13.52 8.58 20.03q1.1 3.14 2.28 6.17 1.54 4.3 3.19 8.59 3.62 9.84 7.34 19.7.4.86.72 1.82c2.99 7.8 5.92 15.6 9.04 23.34 1.75 4.5 3.51 9.05 5.2 13.53.46 1.17.91 2.4 1.37 3.58.65 1.75 1.36 3.5 2.01 5.26.59 1.63 1.24 3.26 1.82 4.88.13.2.13.2.59 1.5 1.3 3.38 1.3 3.38 2.73 4.1l.78-2.41q1.97-5.65 3.83-11.32a884 884 0 0 0 3.32-9.62q.5-1.28.91-2.54c6.31-18.33 12.68-36.6 19.12-54.94.85-2.47 1.76-4.95 2.6-7.42l1.76-5.07q6.23-17.64 12.35-35.37c3.58-10.28 7.16-20.62 10.8-30.9 4.35-12.41 8.71-24.83 12.94-37.25.58-1.56 1.1-3.19 1.69-4.75q1.55-4.57 3.18-9.23.32-1.06.72-2.22c.52-1.5 1.04-2.92 1.5-4.35 1.43-4.03 2.8-8.07 4.16-12.03.45-1.24.84-2.4 1.23-3.58q.9-2.42 1.7-4.94c.19-.46.32-.91.51-1.37 1.96-5.65 3.97-10.53 9.37-13.52a20 20 0 0 1 8.32-.78c.46.06.91.06 1.37.13 1.95.84 2.34 2.34 3.25 4.29q.49.96.97 2.02c.33.65.59 1.36.91 2.01l.78 1.76c.98 2.73.13 5.26-.71 7.93-.72 1.37-.72 1.37-2.02 2.02-.2 1.3-.2 1.3-.32 2.86-.2 2.86-.2 2.86-1.63 4.29-.39 1.43-.71 2.8-.97 4.23-.85 4.1-.85 4.1-2.28 5.52q-.8 1.93-1.5 3.97c-.06.2-.06.2-.45 1.23-.46 1.37-.98 2.74-1.43 4.17-.33.97-.72 1.95-1.04 2.92-3.19 9.1-6.24 18.28-9.37 27.38q-4.57 13.58-9.36 27.05-4.5 12.9-8.9 25.88a1781 1781 0 0 1-9.24 26.27c-3 8.2-5.79 16.45-8.52 24.71a958 958 0 0 1-9.04 26.15c-3.32 9.3-6.57 18.6-9.69 28.02-2.73 8.26-5.52 16.45-8.45 24.65q-.28.66-.46 1.23c-.2.46-.32.85-.45 1.3q-1.87 5.16-3.64 10.4c-.59 1.63-1.1 3.26-1.7 4.95-.38 1.04-.71 2.08-1.1 3.19-4.68 13.65-4.68 13.65-10.6 17.94-3.45 1.17-7.22 1.37-10.6.13-6.57-3.77-8.52-11.64-10.99-18.27-.71-2.01-1.5-4.03-2.27-6.05-.07-.26-.07-.26-.52-1.5-1.57-4.15-3.26-8.25-4.95-12.41-2.6-6.44-5-13-7.34-19.58a894 894 0 0 0-8.26-21.91c-5.27-13.6-10.34-27.31-15.42-40.97q-2.94-8-5.98-16c-9.95-.12-9.95-.12-60.47-.65-.33 1.05-.33 1.05-1.95 6.5l-1.17 3.26c-.2.59-.46 1.17-.65 1.76-.26.58-.46 1.17-.72 1.82-.13.32-.13.32-.72 2.01-.9 2.28-1.75 4.49-2.6 6.76-.32.85-.65 1.63-.9 2.48-3.97 10.33-7.94 20.67-12.04 31.01a2071 2071 0 0 0-11.96 31.41c-2.86 7.68-5.72 15.28-8.65 22.9q-.7 1.74-1.3 3.5c-1.37 3.64-2.8 7.22-4.16 10.8-.33.78-.59 1.56-.91 2.4-.33.65-.59 1.37-.85 2.08-.26.59-.45 1.18-.71 1.76-1.76 3.45-4.16 6.18-7.94 7.41-4.1.59-8.2.52-11.83-1.69-3.84-2.99-5.27-8.06-6.63-12.55q-.29-1.07-.65-2.14c-.52-1.63-.98-3.25-1.5-4.88-.78-2.47-1.5-5-2.28-7.48-7.6-24.58-15.02-49.22-22.5-73.8-1.04-3.52-2.14-7.03-3.18-10.54-6.05-19.96-12.1-40-18.14-59.96-.4-1.43-.85-2.85-1.3-4.35l-5.47-18.34-.39-1.3-2.53-8.78c-.26-.78-.46-1.5-.72-2.27-2.93-10.34-2.93-10.34-.9-15.1 1.81-3.24 4.41-5.06 7.8-6.36 5.07-.91 10.2-.78 15.34-.78h20.94q7.92-.09 15.93-.07c7.74 0 15.41 0 23.15-.06 12.49 0 24.97-.07 37.46-.07 12.16 0 24.32-.06 36.41-.06h2.28c3.77 0 7.54-.07 11.25-.07l93.44-.2 2.93-7.73.97-2.6a532 532 0 0 0 7.1-19.38l1.75-4.94c.26-.65.45-1.37.71-2.08a480 480 0 0 1 3.45-8.78H455.3c.65 59.89.65 59.89 6.05 77.83l.78 2.74 2.14 7.21c.59 2.02 1.24 4.1 1.82 6.12 2.02 6.82 4.1 13.72 6.12 20.54.13.53.32.98.45 1.5q6.56 22.14 13.2 44.29c1.37 4.48 2.67 8.97 4.03 13.45.2.6.33 1.18.52 1.83q4.38 14.62 8.65 29.26 5.95 20.37 12.1 40.64 5.44 18.03 10.8 36.16c4.02 13.72 8.19 27.44 12.28 41.1 2.93 9.55 5.73 19.05 8.52 28.6 2.15 7.42 4.36 14.9 6.63 22.31q.29 1.07.65 2.15c.07.26.07.26.59 1.88.13.52.33 1.04.46 1.63.45 1.17.45 1.17 1.1 1.82q2.05.07 4.1.06h16.12q3.99.01 7.87-.06h15.48c.06-.52.2-.98.26-1.5.45-2.2 1.24-4.29 1.95-6.43.2-.46.32-.92.52-1.37l1.56-4.55q.3-.76.59-1.63a2052 2052 0 0 1 12.29-33.42A1922 1922 0 0 0 623 532.8c.13-.46.32-.91.45-1.37.2-.45.33-.91.52-1.36.33-.98.72-1.96 1.04-2.93.2-.46.33-.98.52-1.43q5.17-14.33 10.54-28.55c3.31-8.65 6.56-17.43 9.68-26.14 3-8.2 5.99-16.39 9.1-24.51l.98-2.54c3.06-8 3.06-8 5.6-11.32l1.04-1.43c3.12-2.34 6.76-2.66 10.53-2.08 5.53 2.47 7.74 8.06 9.82 13.46q1.94 5.48 3.77 11.06 5.85 17.24 12.3 34.2 5.25 13.67 10.14 27.44c3.96 11.25 8.13 22.5 12.29 33.69a2234 2234 0 0 1 12.8 34.79 775 775 0 0 0 6.97 18.6c.2.58.38 1.17.64 1.75l.6 1.5c.38 1.3.38 1.3.38 3.25 7.22-.13 7.22-.13 43.57-.65 1.24-3.9 2.47-7.8 3.77-11.84q4.18-13.37 8.65-26.66c3.64-10.99 7.15-22.04 10.66-33.1 1.7-5.46 3.39-10.86 5.14-16.32q.22-.8.52-1.69c2.73-8.52 5.46-17.1 8.26-25.62 3.06-9.37 6.05-18.66 8.9-28.03 4.1-13.2 8.33-26.33 12.56-39.53q1.1-3.14 2.08-6.38c.13-.45.32-.84.45-1.3 1.83-5.65 3.65-11.38 5.4-17.03.13-.33.13-.33.65-2.02q1.45-4.41 2.8-8.9c.98-3.06 1.95-6.12 2.99-9.18.2-.52.33-1.04.52-1.62.59-1.63 1.17-3.19 1.7-4.82.19-.45.38-.97.51-1.43 1.3-3.5 3.12-5.33 6.37-7.08 2.15-.72 4.3-.98 6.5-1.3a37 37 0 0 1 6.44 11.3q.38.8.65 1.57c1.3 3.64 1.76 6.76.72 10.54-.45.51-.91 1.1-1.37 1.69-1.82 2.27-1.43 3.9-1.23 6.76h-1.3c-.2.65-.46 1.3-.65 1.95a16 16 0 0 1-3.9-1.3l.97 1.95c1.17 2.73 1.24 4.88.98 7.8l-1.3 1.3c-.52 1.17-.52 1.17-.98 2.67-.2.58-.39 1.1-.58 1.69-.2.58-.4 1.24-.59 1.82-.06.33-.06.33-.58 1.95-.72 2.08-1.37 4.23-2.09 6.3-.45 1.44-.9 2.94-1.43 4.37-2.86 9.03-5.72 18-8.45 27.11a2045 2045 0 0 1-8.97 28.42 2422 2422 0 0 0-9.76 30.76c-3.44 11.18-6.95 22.3-10.47 33.49l-.78 2.53-7.21 22.63q-1.08 3.33-2.15 6.77l-.98 3.12a1010 1010 0 0 0-6.37 20.41c-.98 3-1.88 5.99-2.8 9.04-4.94 16.26-4.94 16.26-9.94 19.32-3.06 1.62-5.99 1.5-9.37 1.5h-1.88q-3.03.08-6.05.06h-13.07c-3.77 0-7.55.06-11.32.06-2.92 0-5.85.07-8.71.07h-4.16c-14.5.13-14.5.13-18.93-3.64-3.64-4.04-5.2-8.91-6.89-13.99-.58-1.81-1.23-3.57-1.82-5.4-.2-.45-.32-.97-.52-1.49-2.6-7.48-5.4-14.89-8.13-22.3q-.86-2.43-1.82-4.94c-2.6-6.96-5.14-13.99-7.74-20.94-.2-.46-.32-.91-.52-1.37-.65-1.69-1.23-3.38-1.88-5.07q-3.72-9.96-7.35-20.03c-.2-.46-.33-.91-.52-1.36l-1.95-5.4c-9.63-26.47-9.63-26.47-14.05-37.98-.06-.2-.06-.2-.52-1.36-2.66-6.96-2.66-6.96-4.16-9.89a89 89 0 0 0-4.94 11.38q-.38.88-.65 1.76l-2.15 5.79q-.69 1.96-1.5 4.03-4.85 13.28-9.62 26.66c-2.92 8.26-6.05 16.58-9.1 24.77q-5.25 13.86-10.21 27.7c-2.47 6.7-4.88 13.47-7.35 20.16a25 25 0 0 0-.72 2.02l-4.1 10.93c-.38 1.1-.77 2.14-1.16 3.25-4.55 12.42-4.55 12.42-10.28 15.4-2.92 1.18-5.72 1.18-8.84 1.18h-11.97q-4.38.09-8.77 0c-3.71 0-7.42.06-11.19.06h-20.23c-4.93-.06-9.23-1.36-12.67-4.94-2.15-2.8-3.12-5.85-4.1-9.17-.2-.71-.39-1.43-.65-2.14-.58-2.02-1.17-4.1-1.82-6.12-.72-2.4-1.43-4.87-2.21-7.28q-3.04-9.94-5.98-19.9c-.65-2.2-1.37-4.42-2.02-6.63-5.6-18.73-11.18-37.4-16.71-56.18q-4.59-15.9-9.37-31.8-6.43-21.25-12.68-42.6c-.9-2.92-1.75-5.91-2.66-8.9-.13-.46-.26-.98-.46-1.44a2126 2126 0 0 0-8-26.92c-3.96-13.4-7.93-26.79-11.83-40.25a2704 2704 0 0 0-9.62-32.64c-.72-2.4-1.37-4.75-2.08-7.1-1.83-6.1-3.65-12.22-5.53-18.26-.59-2.08-1.24-4.1-1.82-6.12l-.78-2.66c-3.71-11.84-3.78-23.22-3.71-35.5V220.4q-.01-3.51.06-7.02v-5.73c.07-1.3.07-1.3.72-2.6" transform="translate(-13.58 -5.74)scale(.03283)"/></svg>